<?xml version="1.0" standalone="no"?>
<!DOCTYPE svg PUBLIC "-//W3C//DTD SVG 1.1//EN" "http://www.w3.org/Graphics/SVG/1.1/DTD/svg11.dtd">
<svg xmlns="http://www.w3.org/2000/svg" xmlns:xlink="http://www.w3.org/1999/xlink" version="1.1" id="Layer_1" x="0px" y="0px" viewBox="260 260 320 75" xml:space="preserve">
<style type="text/css">
	.st0{fill:#FFFFFF;}
	.st1{fill:#12055F;}
	.st2{enable-background:new    ;}
</style>
<g>
	<path class="st1" d="M371,283.1c-6.4,0-14.8,5.3-20.8,11l0-29.1h-15.4v60.6c2.4,1,12,4.7,23.2,4.7c17.3,0,25.3-8.8,25.3-26.8   C383.3,287.3,376.7,283.1,371,283.1z M357.7,318.5c-2.6,0-5.1-0.7-7.5-1.8v-10.4c4-4.5,10.5-9,13.5-9c1.3,0,4.4,0.8,4.4,8.3   C368,314.1,364,318.5,357.7,318.5z"/>
	<polygon class="st1" points="308,288.5 284,288.5 284,265 268.4,265 268.4,329.5 284,329.5 284,302.8 308,302.8 308,329.5    323.6,329.5 323.6,265 308,265  "/>
	<path class="st1" d="M508.3,283.6c-2.5-0.4-5.2-0.6-8-0.6c-17.3,0-25.3,8.8-25.3,28c0,15,4.6,19.2,11.3,19.2c8.5,0,15.9-7,21.9-13   l0,12.2h15.4v-40.3l0.1-24.2h-15.3V283.6z M493.6,316.1c-1.7,0-3.3-0.8-3.3-7c0-9.8,4-14.2,10.4-14.2c2.6,0,5.1,0.7,7.5,1.8l0,8.4   C504.2,310.5,498.1,316.1,493.6,316.1z"/>
	<path class="st1" d="M560.8,301.5l-13.2-2.8c-2.1-0.5-3.3-0.7-3.3-1.9c0-1.8,2.7-2.7,6.1-2.7c4.6,0,10.5,1.6,12.8,4.4l8.9-7.3   c-4.9-5.2-13-8.1-21.2-8.1c-10.9,0-21.8,5-21.8,15.9c0,6.7,4.1,10.4,13.2,12.3l12.7,2.7c2.2,0.5,3.3,0.9,3.3,2.1   c0,1.9-2.9,2.8-6.6,2.8c-5.2,0-12.1-1.8-15.2-5.1l-8.2,8.8c5.4,5,14.1,7.8,23.2,7.8c10.9,0,22.1-3.9,22.1-15.8   C573.5,307.1,569.3,303.3,560.8,301.5z"/>
	<path class="st1" d="M456.8,283.1c-8,0-14.9,5.2-20.8,10.9v-10l-15.4,0.1v45.3H436l0-24.6c4-4.3,10.1-7.6,13.5-7.6   c2.2,0,4.4,1.4,4.4,5.7v26.5h15.3l0.2-33.5C469.4,287.3,464,283.1,456.8,283.1z"/>
	<path class="st1" d="M403.4,313v-48H388v53.7c0,7.4,3.3,10.8,11.3,10.8h16.7v-13.2h-9.4C404.2,316.3,403.4,315.3,403.4,313z"/>
</g>
</svg>
