<?xml version="1.0" encoding="UTF-8"?><svg id="union" xmlns="http://www.w3.org/2000/svg" viewBox="200 560 2260 400"><defs><style>.cls-1{fill:#afa0c8;}.cls-2{fill:#fbba3a;}</style></defs><path class="cls-1" d="M397.94,565.67c-100.85,0-182.9,82.05-182.9,182.9v266.04c0,27.55,22.33,49.88,49.88,49.88s49.88-22.34,49.88-49.88v-103.21c24.96,12.8,53.21,20.07,83.14,20.07,100.85,0,182.9-82.05,182.9-182.9s-82.05-182.9-182.9-182.9ZM397.94,831.7c-45.84,0-83.14-37.29-83.14-83.14s37.29-83.14,83.14-83.14,83.14,37.29,83.14,83.14-37.29,83.14-83.14,83.14Z"/><circle class="cls-2" cx="397.93" cy="748.56" r="49.88" transform="translate(-412.76 500.63) rotate(-45)"/><path class="cls-1" d="M773.87,565.67c-101.6,0-184.25,83.07-184.25,185.18s82.65,185.18,184.25,185.18h134c27.75,0,50.25-22.61,50.25-50.5v-134.67c0-102.11-82.65-185.18-184.25-185.18ZM857.62,835.01h-83.75c-46.18,0-83.75-37.76-83.75-84.17s37.57-84.17,83.75-84.17,83.75,37.76,83.75,84.17v84.17Z"/><path class="cls-2" d="M773.87,700.36c-27.75,0-50.25,22.61-50.25,50.5s22.5,50.5,50.25,50.5,50.25-22.61,50.25-50.5-22.5-50.5-50.25-50.5Z"/><path class="cls-1" d="M1201.2,615.87c0-27.73-22.48-50.21-50.2-50.21-101.51,0-184.09,82.58-184.09,184.09v133.88c0,27.73,22.48,50.21,50.2,50.21s50.21-22.48,50.21-50.21v-133.88c0-46.14,37.54-83.67,83.68-83.67,27.73,0,50.2-22.48,50.2-50.21Z"/><circle class="cls-2" cx="1138.6" cy="749.76" r="50.21" transform="translate(-141.8 281.65) rotate(-13.28)"/><path class="cls-1" d="M1585.46,761.96c-23.04,0-41.72,16.48-41.72,36.81,0,33.83-31.19,61.34-69.53,61.34h-111.25c-38.34,0-69.53-27.51-69.53-61.34v-61.34h69.53c23.04,0,41.72-16.48,41.72-36.81s-18.68-36.81-41.72-36.81h-69.53v-61.34c0-20.33-18.68-36.81-41.72-36.81s-41.72,16.48-41.72,36.81v196.3c0,74.42,68.62,134.96,152.98,134.96h111.25c84.35,0,152.97-60.55,152.97-134.96,0-20.33-18.68-36.81-41.72-36.81Z"/><ellipse class="cls-2" cx="1355.35" cy="796.75" rx="34.13" ry="34.79"/><ellipse class="cls-2" cx="1584.69" cy="716.07" rx="34.13" ry="34.79"/><path class="cls-1" d="M1592.83,565.67c-100.99,0-183.15,82.16-183.15,183.16,0,27.59,22.36,49.95,49.95,49.95s49.95-22.37,49.95-49.95c0-45.9,37.35-83.25,83.25-83.25s83.25,37.35,83.25,83.25v133.2c0,27.59,22.36,49.95,49.95,49.95s49.95-22.37,49.95-49.95v-133.2c0-100.99-82.16-183.16-183.16-183.16Z"/><path class="cls-1" d="M2035.04,699.14h-66.74c-27.64,0-50.05,22.41-50.05,50.06s22.41,50.05,50.05,50.05h66.74c64.4,0,116.79-52.39,116.79-116.79s-52.39-116.79-116.79-116.79h-66.74c-49.02,0-95.11,19.09-129.77,53.75-34.67,34.66-53.76,80.75-53.76,129.78,0,101.2,82.33,183.53,183.53,183.53h111.23c27.64,0,50.05-22.41,50.05-50.06s-22.41-50.05-50.05-50.05h-111.23c-46,0-83.42-37.42-83.42-83.42,0-22.28,8.68-43.23,24.43-58.99,15.76-15.75,36.71-24.43,58.99-24.43h66.74c9.2,0,16.68,7.48,16.68,16.68s-7.48,16.68-16.68,16.68Z"/><path class="cls-1" d="M2394.91,615.87c0-27.73-22.48-50.21-50.2-50.21-101.51,0-184.09,82.58-184.09,184.09v133.88c0,27.73,22.48,50.21,50.2,50.21s50.21-22.48,50.21-50.21v-133.88c0-46.14,37.54-83.67,83.68-83.67,27.73,0,50.2-22.48,50.2-50.21Z"/><circle class="cls-2" cx="2332.31" cy="749.76" r="50.21" transform="translate(-109.87 555.91) rotate(-13.28)"/></svg>